# xmcd CD database file
#
# Track frame offsets:
#	150
#	19215
#	38475
#	59960
#	80037
#	98510
#	121505
#	145590
#	164902
#	185402
#	201460
#	224190
#	252817
#	273027
#	293085
#
# Disc length: 4202 seconds
#
# Revision: 1
# Processed by: cddbd v1.5PL3 Copyright (c) Steve Scherf et al.
# Submitted via: CDex 1.50
#
DISCID=e110680f
DTITLE=Fernanda Porto - Fernanda Porto
DYEAR=2003
DGENRE=Jazz
TTITLE0=Sambassim
TTITLE1=So Tinha De Ser Com Voce
TTITLE2=Eletricidade
TTITLE3=Baque Virade
TTITLE4=Amor Errado
TTITLE5=Tudo De Bom
TTITLE6=Vilarejo Intimo
TTITLE7=De Costas Pro Mundo
TTITLE8=Outro Lugar Do Mundo
TTITLE9=Tanta Besteira
TTITLE10=O Amor Nao Cala
TTITLE11=Cainagaradaia
TTITLE12=Jeito Novo(Not The Same)
TTITLE13=Sambassim(Mad Zoo Hologoraphic Remix)
TTITLE14=So Tinha De Ser Com Voce(Mad Zoo Back to Mine Remix)
EXTD=YEAR: 2003
EXTT0=
EXTT1=
EXTT2=
EXTT3=
EXTT4=
EXTT5=
EXTT6=
EXTT7=
EXTT8=
EXTT9=
EXTT10=
EXTT11=
EXTT12=
EXTT13=
EXTT14=
PLAYORDER=
